<svg width="277" height="277" viewBox="0 0 277 277" fill="none" xmlns="http://www.w3.org/2000/svg">
<g filter="url(#filter0_i_0_2196)">
<rect x="0.603027" width="276.397" height="276.397" rx="60" fill="black"/>
</g>
<path d="M172.956 137.87C172.956 143.388 171.32 148.783 168.254 153.372C165.188 157.96 160.83 161.537 155.731 163.649C150.633 165.76 145.022 166.313 139.61 165.236C134.197 164.16 129.225 161.502 125.323 157.6C121.421 153.698 118.763 148.726 117.687 143.313C116.61 137.9 117.163 132.29 119.274 127.192C121.386 122.093 124.963 117.735 129.551 114.669C134.14 111.603 139.535 109.967 145.053 109.967C152.451 109.975 159.543 112.918 164.774 118.149C170.005 123.38 172.948 130.472 172.956 137.87ZM232.25 99.503V176.236C232.235 189.182 227.086 201.594 217.932 210.748C208.778 219.902 196.366 225.052 183.42 225.066H106.687C93.7408 225.052 81.3292 219.902 72.1749 210.748C63.0207 201.594 57.8714 189.182 57.8567 176.236V99.503C57.8714 86.5569 63.0207 74.1453 72.1749 64.9911C81.3292 55.8368 93.7408 50.6875 106.687 50.6729H183.42C196.366 50.6875 208.778 55.8368 217.932 64.9911C227.086 74.1453 232.235 86.5569 232.25 99.503ZM186.908 137.87C186.908 129.592 184.453 121.499 179.854 114.616C175.255 107.734 168.718 102.369 161.07 99.2011C153.422 96.0333 145.007 95.2044 136.888 96.8194C128.769 98.4343 121.311 102.421 115.458 108.274C109.604 114.127 105.618 121.585 104.003 129.704C102.388 137.823 103.217 146.239 106.385 153.887C109.553 161.534 114.917 168.071 121.8 172.67C128.683 177.269 136.775 179.724 145.053 179.724C156.15 179.711 166.789 175.298 174.635 167.451C182.482 159.605 186.895 148.966 186.908 137.87ZM200.859 92.5273C200.859 90.4578 200.246 88.4347 199.096 86.714C197.946 84.9933 196.312 83.6521 194.4 82.8602C192.488 82.0682 190.384 81.861 188.354 82.2647C186.325 82.6685 184.46 83.665 182.997 85.1284C181.533 86.5917 180.537 88.4562 180.133 90.4859C179.729 92.5157 179.937 94.6195 180.729 96.5315C181.521 98.4435 182.862 100.078 184.582 101.227C186.303 102.377 188.326 102.991 190.396 102.991C193.171 102.991 195.832 101.888 197.795 99.9262C199.757 97.9638 200.859 95.3024 200.859 92.5273Z" fill="white"/>
<defs>
<filter id="filter0_i_0_2196" x="0.603027" y="0" width="276.397" height="284.397" filterUnits="userSpaceOnUse" color-interpolation-filters="sRGB">
<feFlood flood-opacity="0" result="BackgroundImageFix"/>
<feBlend mode="normal" in="SourceGraphic" in2="BackgroundImageFix" result="shape"/>
<feColorMatrix in="SourceAlpha" type="matrix" values="0 0 0 0 0 0 0 0 0 0 0 0 0 0 0 0 0 0 127 0" result="hardAlpha"/>
<feOffset dy="8"/>
<feGaussianBlur stdDeviation="27.7"/>
<feComposite in2="hardAlpha" operator="arithmetic" k2="-1" k3="1"/>
<feColorMatrix type="matrix" values="0 0 0 0 1 0 0 0 0 1 0 0 0 0 1 0 0 0 0.4 0"/>
<feBlend mode="normal" in2="shape" result="effect1_innerShadow_0_2196"/>
</filter>
</defs>
</svg>
