<svg width="277" height="277" viewBox="0 0 277 277" fill="none" xmlns="http://www.w3.org/2000/svg">
<g filter="url(#filter0_i_0_2191)">
<rect x="0.301453" width="276.397" height="276.397" rx="60" fill="black"/>
</g>
<path fill-rule="evenodd" clip-rule="evenodd" d="M212.398 59.6802C222.463 55.4424 233.253 63.9531 231.475 74.7282L210.485 201.998C208.461 214.269 194.983 221.31 183.725 215.195C174.304 210.078 160.327 202.202 147.73 193.971C141.44 189.861 122.18 176.681 124.547 167.299C126.571 159.277 158.95 129.137 177.453 111.212C184.721 104.171 181.411 100.104 172.828 106.587C151.535 122.668 117.349 147.119 106.044 154C96.0695 160.071 90.8617 161.107 84.6498 160.071C73.3063 158.181 62.7895 155.254 54.2034 151.695C42.5986 146.884 43.1639 130.936 54.1955 126.292L212.398 59.6802Z" fill="white"/>
<defs>
<filter id="filter0_i_0_2191" x="0.301453" y="0" width="276.397" height="284.397" filterUnits="userSpaceOnUse" color-interpolation-filters="sRGB">
<feFlood flood-opacity="0" result="BackgroundImageFix"/>
<feBlend mode="normal" in="SourceGraphic" in2="BackgroundImageFix" result="shape"/>
<feColorMatrix in="SourceAlpha" type="matrix" values="0 0 0 0 0 0 0 0 0 0 0 0 0 0 0 0 0 0 127 0" result="hardAlpha"/>
<feOffset dy="8"/>
<feGaussianBlur stdDeviation="27.7"/>
<feComposite in2="hardAlpha" operator="arithmetic" k2="-1" k3="1"/>
<feColorMatrix type="matrix" values="0 0 0 0 1 0 0 0 0 1 0 0 0 0 1 0 0 0 0.4 0"/>
<feBlend mode="normal" in2="shape" result="effect1_innerShadow_0_2191"/>
</filter>
</defs>
</svg>
