<svg width="722" height="531" viewBox="0 0 722 531" fill="none" xmlns="http://www.w3.org/2000/svg">
<path d="M373.5 58C417.142 58 459.933 70.0758 497.137 92.8909C534.34 115.706 564.505 148.37 584.293 187.269C604.081 226.167 612.719 269.782 609.253 313.286C605.786 356.79 590.349 398.487 564.651 433.76C538.953 469.034 503.996 496.509 463.649 513.145C423.302 529.78 379.138 534.927 336.047 528.016C292.956 521.104 252.617 502.404 219.496 473.985C186.375 445.567 161.763 408.537 148.385 366.996L215.92 345.247C225.284 374.326 242.512 400.247 265.697 420.14C288.882 440.033 317.119 453.123 347.283 457.961C377.447 462.799 408.361 459.196 436.604 447.551C464.847 435.906 489.317 416.674 507.306 391.982C525.295 367.291 536.1 338.103 538.527 307.65C540.954 277.197 534.906 246.667 521.055 219.438C507.204 192.209 486.088 169.344 460.046 153.374C434.003 137.403 404.049 128.95 373.5 128.95V58Z" fill="#848484"/>
<path d="M148.64 367.782C133.27 320.62 133.118 269.819 148.205 222.566L215.794 244.146C205.232 277.223 205.339 312.784 216.098 345.797L148.64 367.782Z" fill="#484848"/>
<path d="M148.123 222.825C163.4 174.786 193.627 132.886 234.395 103.236C275.163 73.5857 324.338 57.7376 374.746 58.0033L374.373 128.952C339.086 128.766 304.664 139.86 276.126 160.615C247.589 181.37 226.43 210.7 215.736 244.327L148.123 222.825Z" fill="#696969"/>
<path d="M579 220H697V167" stroke="#848484"/>
<circle cx="697" cy="162" r="25" fill="white"/>
<path d="M682.38 170L687.56 157.9H682.12V160.48H680.18V156.04H689.8V158L684.76 170H682.38ZM696.592 170.24C695.712 170.24 694.946 170.08 694.292 169.76C693.652 169.427 693.119 168.953 692.692 168.34C692.279 167.727 691.972 166.973 691.772 166.08C691.572 165.187 691.472 164.167 691.472 163.02C691.472 161.887 691.572 160.873 691.772 159.98C691.972 159.073 692.279 158.313 692.692 157.7C693.119 157.087 693.652 156.62 694.292 156.3C694.946 155.967 695.712 155.8 696.592 155.8C697.472 155.8 698.232 155.967 698.872 156.3C699.526 156.62 700.059 157.087 700.472 157.7C700.899 158.313 701.212 159.073 701.412 159.98C701.612 160.873 701.712 161.887 701.712 163.02C701.712 164.167 701.612 165.187 701.412 166.08C701.212 166.973 700.899 167.727 700.472 168.34C700.059 168.953 699.526 169.427 698.872 169.76C698.232 170.08 697.472 170.24 696.592 170.24ZM696.592 168.4C697.606 168.4 698.326 168.027 698.752 167.28C699.192 166.52 699.412 165.5 699.412 164.22V161.82C699.412 160.54 699.192 159.527 698.752 158.78C698.326 158.02 697.606 157.64 696.592 157.64C696.086 157.64 695.652 157.74 695.292 157.94C694.932 158.127 694.639 158.407 694.412 158.78C694.186 159.14 694.019 159.58 693.912 160.1C693.819 160.607 693.772 161.18 693.772 161.82V164.22C693.772 164.86 693.819 165.44 693.912 165.96C694.019 166.467 694.186 166.907 694.412 167.28C694.639 167.64 694.932 167.92 695.292 168.12C695.652 168.307 696.086 168.4 696.592 168.4ZM696.592 164.2C696.126 164.2 695.799 164.107 695.612 163.92C695.439 163.733 695.352 163.507 695.352 163.24V162.8C695.352 162.533 695.439 162.307 695.612 162.12C695.799 161.933 696.126 161.84 696.592 161.84C697.059 161.84 697.379 161.933 697.552 162.12C697.739 162.307 697.832 162.533 697.832 162.8V163.24C697.832 163.507 697.739 163.733 697.552 163.92C697.379 164.107 697.059 164.2 696.592 164.2ZM705.524 163.04C704.604 163.04 703.864 162.733 703.304 162.12C702.758 161.493 702.484 160.593 702.484 159.42C702.484 158.247 702.758 157.353 703.304 156.74C703.864 156.113 704.604 155.8 705.524 155.8C706.444 155.8 707.178 156.113 707.724 156.74C708.284 157.353 708.564 158.247 708.564 159.42C708.564 160.593 708.284 161.493 707.724 162.12C707.178 162.733 706.444 163.04 705.524 163.04ZM705.524 161.68C705.964 161.68 706.304 161.527 706.544 161.22C706.784 160.9 706.904 160.46 706.904 159.9V158.94C706.904 158.38 706.784 157.947 706.544 157.64C706.304 157.32 705.964 157.16 705.524 157.16C705.084 157.16 704.744 157.32 704.504 157.64C704.264 157.947 704.144 158.38 704.144 158.94V159.9C704.144 160.46 704.264 160.9 704.504 161.22C704.744 161.527 705.084 161.68 705.524 161.68ZM712.164 156.04H713.964L710.824 162.04H709.044L712.164 156.04ZM705.544 164H707.324L704.204 170H702.404L705.544 164ZM710.844 170.24C709.924 170.24 709.184 169.933 708.624 169.32C708.078 168.693 707.804 167.793 707.804 166.62C707.804 165.447 708.078 164.553 708.624 163.94C709.184 163.313 709.924 163 710.844 163C711.764 163 712.498 163.313 713.044 163.94C713.604 164.553 713.884 165.447 713.884 166.62C713.884 167.793 713.604 168.693 713.044 169.32C712.498 169.933 711.764 170.24 710.844 170.24ZM710.844 168.88C711.284 168.88 711.624 168.727 711.864 168.42C712.104 168.1 712.224 167.66 712.224 167.1V166.14C712.224 165.58 712.104 165.147 711.864 164.84C711.624 164.52 711.284 164.36 710.844 164.36C710.404 164.36 710.064 164.52 709.824 164.84C709.584 165.147 709.464 165.58 709.464 166.14V167.1C709.464 167.66 709.584 168.1 709.824 168.42C710.064 168.727 710.404 168.88 710.844 168.88Z" fill="black"/>
<path d="M170 308H25V431" stroke="#484848"/>
<circle cx="25" cy="436" r="25" fill="white"/>
<path d="M8.76 444V442.14H12.68V431.68H12.52L9.28 435.14L7.9 433.9L11.46 430.04H14.92V442.14H18.3V444H8.76ZM24.5922 444.24C23.7122 444.24 22.9455 444.08 22.2922 443.76C21.6522 443.427 21.1189 442.953 20.6922 442.34C20.2789 441.727 19.9722 440.973 19.7722 440.08C19.5722 439.187 19.4722 438.167 19.4722 437.02C19.4722 435.887 19.5722 434.873 19.7722 433.98C19.9722 433.073 20.2789 432.313 20.6922 431.7C21.1189 431.087 21.6522 430.62 22.2922 430.3C22.9455 429.967 23.7122 429.8 24.5922 429.8C25.4722 429.8 26.2322 429.967 26.8722 430.3C27.5255 430.62 28.0589 431.087 28.4722 431.7C28.8989 432.313 29.2122 433.073 29.4122 433.98C29.6122 434.873 29.7122 435.887 29.7122 437.02C29.7122 438.167 29.6122 439.187 29.4122 440.08C29.2122 440.973 28.8989 441.727 28.4722 442.34C28.0589 442.953 27.5255 443.427 26.8722 443.76C26.2322 444.08 25.4722 444.24 24.5922 444.24ZM24.5922 442.4C25.6055 442.4 26.3255 442.027 26.7522 441.28C27.1922 440.52 27.4122 439.5 27.4122 438.22V435.82C27.4122 434.54 27.1922 433.527 26.7522 432.78C26.3255 432.02 25.6055 431.64 24.5922 431.64C24.0855 431.64 23.6522 431.74 23.2922 431.94C22.9322 432.127 22.6389 432.407 22.4122 432.78C22.1855 433.14 22.0189 433.58 21.9122 434.1C21.8189 434.607 21.7722 435.18 21.7722 435.82V438.22C21.7722 438.86 21.8189 439.44 21.9122 439.96C22.0189 440.467 22.1855 440.907 22.4122 441.28C22.6389 441.64 22.9322 441.92 23.2922 442.12C23.6522 442.307 24.0855 442.4 24.5922 442.4ZM24.5922 438.2C24.1255 438.2 23.7989 438.107 23.6122 437.92C23.4389 437.733 23.3522 437.507 23.3522 437.24V436.8C23.3522 436.533 23.4389 436.307 23.6122 436.12C23.7989 435.933 24.1255 435.84 24.5922 435.84C25.0589 435.84 25.3789 435.933 25.5522 436.12C25.7389 436.307 25.8322 436.533 25.8322 436.8V437.24C25.8322 437.507 25.7389 437.733 25.5522 437.92C25.3789 438.107 25.0589 438.2 24.5922 438.2ZM33.5244 437.04C32.6044 437.04 31.8644 436.733 31.3044 436.12C30.7577 435.493 30.4844 434.593 30.4844 433.42C30.4844 432.247 30.7577 431.353 31.3044 430.74C31.8644 430.113 32.6044 429.8 33.5244 429.8C34.4444 429.8 35.1777 430.113 35.7244 430.74C36.2844 431.353 36.5644 432.247 36.5644 433.42C36.5644 434.593 36.2844 435.493 35.7244 436.12C35.1777 436.733 34.4444 437.04 33.5244 437.04ZM33.5244 435.68C33.9644 435.68 34.3044 435.527 34.5444 435.22C34.7844 434.9 34.9044 434.46 34.9044 433.9V432.94C34.9044 432.38 34.7844 431.947 34.5444 431.64C34.3044 431.32 33.9644 431.16 33.5244 431.16C33.0844 431.16 32.7444 431.32 32.5044 431.64C32.2644 431.947 32.1444 432.38 32.1444 432.94V433.9C32.1444 434.46 32.2644 434.9 32.5044 435.22C32.7444 435.527 33.0844 435.68 33.5244 435.68ZM40.1644 430.04H41.9644L38.8244 436.04H37.0444L40.1644 430.04ZM33.5444 438H35.3244L32.2044 444H30.4044L33.5444 438ZM38.8444 444.24C37.9244 444.24 37.1844 443.933 36.6244 443.32C36.0777 442.693 35.8044 441.793 35.8044 440.62C35.8044 439.447 36.0777 438.553 36.6244 437.94C37.1844 437.313 37.9244 437 38.8444 437C39.7644 437 40.4977 437.313 41.0444 437.94C41.6044 438.553 41.8844 439.447 41.8844 440.62C41.8844 441.793 41.6044 442.693 41.0444 443.32C40.4977 443.933 39.7644 444.24 38.8444 444.24ZM38.8444 442.88C39.2844 442.88 39.6244 442.727 39.8644 442.42C40.1044 442.1 40.2244 441.66 40.2244 441.1V440.14C40.2244 439.58 40.1044 439.147 39.8644 438.84C39.6244 438.52 39.2844 438.36 38.8444 438.36C38.4044 438.36 38.0644 438.52 37.8244 438.84C37.5844 439.147 37.4644 439.58 37.4644 440.14V441.1C37.4644 441.66 37.5844 442.1 37.8244 442.42C38.0644 442.727 38.4044 442.88 38.8444 442.88Z" fill="black"/>
<path d="M226 111V18H118" stroke="#484848"/>
<circle cx="112" cy="25" r="25" fill="white"/>
<path d="M104.9 33H95.26V30.86L99.82 26.88C100.54 26.24 101.093 25.6333 101.48 25.06C101.88 24.4867 102.08 23.88 102.08 23.24V23.02C102.08 22.2867 101.88 21.7267 101.48 21.34C101.08 20.94 100.5 20.74 99.74 20.74C98.9667 20.74 98.3667 20.9467 97.94 21.36C97.5267 21.7733 97.2267 22.3 97.04 22.94L95.08 22.2C95.2133 21.76 95.4067 21.34 95.66 20.94C95.9133 20.5267 96.2333 20.16 96.62 19.84C97.02 19.52 97.4867 19.2667 98.02 19.08C98.5667 18.8933 99.1933 18.8 99.9 18.8C100.62 18.8 101.26 18.9067 101.82 19.12C102.393 19.32 102.873 19.6 103.26 19.96C103.647 20.32 103.94 20.7533 104.14 21.26C104.34 21.7533 104.44 22.3 104.44 22.9C104.44 23.46 104.353 23.98 104.18 24.46C104.02 24.9267 103.787 25.38 103.48 25.82C103.187 26.2467 102.833 26.66 102.42 27.06C102.007 27.46 101.553 27.86 101.06 28.26L97.68 31.1H104.9V33ZM111.592 33.24C110.712 33.24 109.946 33.08 109.292 32.76C108.652 32.4267 108.119 31.9533 107.692 31.34C107.279 30.7267 106.972 29.9733 106.772 29.08C106.572 28.1867 106.472 27.1667 106.472 26.02C106.472 24.8867 106.572 23.8733 106.772 22.98C106.972 22.0733 107.279 21.3133 107.692 20.7C108.119 20.0867 108.652 19.62 109.292 19.3C109.946 18.9667 110.712 18.8 111.592 18.8C112.472 18.8 113.232 18.9667 113.872 19.3C114.526 19.62 115.059 20.0867 115.472 20.7C115.899 21.3133 116.212 22.0733 116.412 22.98C116.612 23.8733 116.712 24.8867 116.712 26.02C116.712 27.1667 116.612 28.1867 116.412 29.08C116.212 29.9733 115.899 30.7267 115.472 31.34C115.059 31.9533 114.526 32.4267 113.872 32.76C113.232 33.08 112.472 33.24 111.592 33.24ZM111.592 31.4C112.606 31.4 113.326 31.0267 113.752 30.28C114.192 29.52 114.412 28.5 114.412 27.22V24.82C114.412 23.54 114.192 22.5267 113.752 21.78C113.326 21.02 112.606 20.64 111.592 20.64C111.086 20.64 110.652 20.74 110.292 20.94C109.932 21.1267 109.639 21.4067 109.412 21.78C109.186 22.14 109.019 22.58 108.912 23.1C108.819 23.6067 108.772 24.18 108.772 24.82V27.22C108.772 27.86 108.819 28.44 108.912 28.96C109.019 29.4667 109.186 29.9067 109.412 30.28C109.639 30.64 109.932 30.92 110.292 31.12C110.652 31.3067 111.086 31.4 111.592 31.4ZM111.592 27.2C111.126 27.2 110.799 27.1067 110.612 26.92C110.439 26.7333 110.352 26.5067 110.352 26.24V25.8C110.352 25.5333 110.439 25.3067 110.612 25.12C110.799 24.9333 111.126 24.84 111.592 24.84C112.059 24.84 112.379 24.9333 112.552 25.12C112.739 25.3067 112.832 25.5333 112.832 25.8V26.24C112.832 26.5067 112.739 26.7333 112.552 26.92C112.379 27.1067 112.059 27.2 111.592 27.2ZM120.524 26.04C119.604 26.04 118.864 25.7333 118.304 25.12C117.758 24.4933 117.484 23.5933 117.484 22.42C117.484 21.2467 117.758 20.3533 118.304 19.74C118.864 19.1133 119.604 18.8 120.524 18.8C121.444 18.8 122.178 19.1133 122.724 19.74C123.284 20.3533 123.564 21.2467 123.564 22.42C123.564 23.5933 123.284 24.4933 122.724 25.12C122.178 25.7333 121.444 26.04 120.524 26.04ZM120.524 24.68C120.964 24.68 121.304 24.5267 121.544 24.22C121.784 23.9 121.904 23.46 121.904 22.9V21.94C121.904 21.38 121.784 20.9467 121.544 20.64C121.304 20.32 120.964 20.16 120.524 20.16C120.084 20.16 119.744 20.32 119.504 20.64C119.264 20.9467 119.144 21.38 119.144 21.94V22.9C119.144 23.46 119.264 23.9 119.504 24.22C119.744 24.5267 120.084 24.68 120.524 24.68ZM127.164 19.04H128.964L125.824 25.04H124.044L127.164 19.04ZM120.544 27H122.324L119.204 33H117.404L120.544 27ZM125.844 33.24C124.924 33.24 124.184 32.9333 123.624 32.32C123.078 31.6933 122.804 30.7933 122.804 29.62C122.804 28.4467 123.078 27.5533 123.624 26.94C124.184 26.3133 124.924 26 125.844 26C126.764 26 127.498 26.3133 128.044 26.94C128.604 27.5533 128.884 28.4467 128.884 29.62C128.884 30.7933 128.604 31.6933 128.044 32.32C127.498 32.9333 126.764 33.24 125.844 33.24ZM125.844 31.88C126.284 31.88 126.624 31.7267 126.864 31.42C127.104 31.1 127.224 30.66 127.224 30.1V29.14C127.224 28.58 127.104 28.1467 126.864 27.84C126.624 27.52 126.284 27.36 125.844 27.36C125.404 27.36 125.064 27.52 124.824 27.84C124.584 28.1467 124.464 28.58 124.464 29.14V30.1C124.464 30.66 124.584 31.1 124.824 31.42C125.064 31.7267 125.404 31.88 125.844 31.88Z" fill="black"/>
</svg>
